<?xml version="1.0" standalone="no"?>
<!DOCTYPE svg PUBLIC "-//W3C//DTD SVG 1.1//EN" "http://www.w3.org/Graphics/SVG/1.1/DTD/svg11.dtd" >
<svg xmlns="http://www.w3.org/2000/svg" xmlns:xlink="http://www.w3.org/1999/xlink" version="1.1">
<metadata>
Created by FontForge 20170731 at Sat Jul 15 14:28:24 2023
 By Aleksey,,,
Copyright 2018 Production Systems SAS - All rights reserved - End-User License Agreement:  http://www.productiontype.com/license
</metadata>
<defs>
<font id="SainteColombe-Regular" horiz-adv-x="798" >
  <font-face 
    font-family="Sainte Colombe"
    font-weight="400"
    font-stretch="normal"
    units-per-em="2048"
    panose-1="2 0 0 0 0 0 0 0 0 0"
    ascent="1536"
    descent="-512"
    x-height="1024"
    cap-height="1536"
    bbox="-412 -512 2331 1661"
    underline-thickness="40"
    underline-position="-292"
    unicode-range="U+0020-201D"
  />
<missing-glyph horiz-adv-x="1044" 
 />
    <glyph glyph-name=".notdef" horiz-adv-x="1044" 
 />
    <glyph glyph-name=".null" horiz-adv-x="0" 
 />
    <glyph glyph-name="nonmarkingreturn" horiz-adv-x="682" 
 />
    <glyph glyph-name="space" unicode=" " horiz-adv-x="557" 
 />
    <glyph glyph-name="exclam" unicode="!" horiz-adv-x="593" 
d="M399 1436q0 -60 -38.5 -406t-53.5 -579h-20q-15 229 -53.5 575.5t-38.5 409.5q0 61 30 90.5t72 29.5t72 -29.5t30 -90.5zM297 -20q-63 0 -102 38.5t-39 102.5t39 102.5t102 38.5t102 -38.5t39 -102.5t-39 -102.5t-102 -38.5z" />
    <glyph glyph-name="quotedbl" unicode="&#x22;" horiz-adv-x="823" 
d="M319 1436q0 -30 -15 -107t-39 -196t-38 -211h-20q-14 92 -38 211t-39 196t-15 107q0 61 30 90.5t72 29.5t72 -29.5t30 -90.5zM709 1436q0 -30 -15 -107t-39.5 -195.5t-38.5 -211.5h-20q-14 92 -38 211t-39 196t-15 107q0 61 30 90.5t72 29.5t72.5 -29.5t30.5 -90.5z" />
    <glyph glyph-name="ampersand" unicode="&#x26;" horiz-adv-x="1675" 
d="M836 772q121 -103 317 -321q5 12 26 53.5t31 66.5l37 82q41 87 29.5 142.5t-50.5 80.5t-98 25h-20v21h20q33 0 116 -5.5t108 -5.5h6q24 0 108 5.5t113 5.5h20v-21h-20q-55 0 -92.5 -12.5t-69.5 -46.5t-54.5 -74t-57.5 -115l-37 -80q-53 -113 -80 -161q178 -202 240 -263
q133 -129 212 -129h21v-20h-381q-98 137 -190 248q-95 -134 -210.5 -201t-273.5 -67q-225 0 -354 111.5t-129 301.5q0 77 27.5 142.5t80 117.5t115.5 92t148 80q-80 68 -127.5 119t-82 125.5t-34.5 159.5q0 146 105.5 236.5t275.5 90.5q177 0 287 -78.5t110 -205.5
q0 -133 -80.5 -226.5t-234.5 -173.5q89 -71 123 -100zM393 1298q0 -43 8 -80.5t27.5 -72t38.5 -60.5t56.5 -59.5t64 -55.5t76.5 -61l6 -4.5t5.5 -4.5t6.5 -5q95 57 145 150t50 204q0 120 -66.5 191t-181.5 71q-106 0 -171 -59t-65 -154zM293 408q0 -174 85 -274.5
t243 -100.5q137 0 241.5 64t194.5 192q-176 210 -355 364q-47 41 -178 148q-116 -55 -173.5 -157t-57.5 -236z" />
    <glyph glyph-name="quotesingle" unicode="'" horiz-adv-x="434" 
d="M319 1436q0 -30 -15 -107t-39 -196t-38 -211h-20q-14 92 -38 211t-39 196t-15 107q0 61 30 90.5t72 29.5t72 -29.5t30 -90.5z" />
    <glyph glyph-name="parenleft" unicode="(" horiz-adv-x="612" 
d="M102 625q0 143 32 273.5t80.5 225t116 178.5t128 136.5t127.5 97.5l12 -16q-166 -125 -264 -362.5t-98 -532.5t98 -532.5t264 -362.5l-12 -17q-67 44 -127.5 97t-128 136.5t-116 178t-80.5 225.5t-32 275z" />
    <glyph glyph-name="parenright" unicode=")" horiz-adv-x="612" 
d="M510 625q0 -144 -32 -275t-80 -225.5t-115.5 -178t-128 -136.5t-127.5 -97l-13 17q166 125 264.5 363t98.5 532t-98.5 532t-264.5 363l13 16q67 -45 127.5 -98t128 -136.5t115.5 -178t80 -224.5t32 -274z" />
    <glyph glyph-name="plus" unicode="+" horiz-adv-x="1331" 
d="M643 184v445h-438v41h438v440h45v-440h438v-41h-438v-445h-45z" />
    <glyph glyph-name="comma" unicode="," horiz-adv-x="491" 
d="M125 31q22 101 51.5 143.5t79.5 42.5q41 0 67.5 -26.5t26.5 -69.5q0 -75 -53 -160l-240 -381l-24 8z" />
    <glyph glyph-name="hyphen" unicode="-" horiz-adv-x="823" 
d="M145 516v143h533v-143h-533z" />
    <glyph glyph-name="period" unicode="." horiz-adv-x="536" 
d="M268 -20q-63 0 -102 38.5t-39 102.5t39 102.5t102 38.5t102.5 -38.5t39.5 -102.5t-39.5 -102.5t-102.5 -38.5z" />
    <glyph glyph-name="slash" unicode="/" horiz-adv-x="1036" 
d="M926 1536h53l-868 -1536h-54z" />
    <glyph glyph-name="zero" unicode="0" horiz-adv-x="1376" 
d="M688 -20q-119 0 -223.5 55.5t-181 156t-120.5 249.5t-44 327t44 327t120.5 249.5t181 156t223.5 55.5t223.5 -55.5t181 -156t120.5 -249.5t44 -327t-44 -327t-120.5 -249.5t-181 -156t-223.5 -55.5zM688 25q117 0 198.5 90.5t121 256t39.5 396.5t-39.5 396.5t-121 256
t-198.5 90.5q-175 0 -266.5 -196t-91.5 -547t91.5 -547t266.5 -196z" />
    <glyph glyph-name="one" unicode="1" horiz-adv-x="747" 
d="M383 10q-29 0 -110 -5t-121 -5h-41v20h41q69 0 100 38.5t31 127.5v1033q0 42 -4.5 68.5t-16.5 47.5t-35 28t-60 5t-91 -16l-6 20q214 58 393 184h20v-1370q0 -89 31 -127.5t100 -38.5h41v-20h-41q-40 0 -121 5t-110 5z" />
    <glyph glyph-name="two" unicode="2" horiz-adv-x="1220" 
d="M768 158q76 0 133.5 14t95 36.5t65.5 61t43.5 76.5t31.5 94l22 -6l-59 -201q-42 -151 -66.5 -192t-83.5 -41h-872v18q167 196 266 315.5t191 237t137 186t80.5 139.5t46 122.5t10.5 111.5q0 146 -84 232t-225 86q-116 0 -207.5 -57t-186.5 -185l-22 15
q115 164 242.5 249.5t291.5 85.5q172 0 273.5 -90t101.5 -252q0 -45 -12 -91t-30.5 -88.5t-58 -100.5t-77 -107t-106 -130t-127 -147.5t-158.5 -181t-182 -210.5h526z" />
    <glyph glyph-name="three" unicode="3" horiz-adv-x="1247" 
d="M932 477q0 81 -22.5 150.5t-67 124t-118.5 85.5t-171 31q-59 0 -107 -20l-124 -119l-33 29l645 620h-393q-178 0 -256.5 -36t-108.5 -121l-14 -45h-27l103 370q147 -10 206 -10h707v-18l-657 -625q96 49 202 49q194 0 313 -106t119 -291q0 -169 -84 -298t-231 -198
t-334 -69q-190 0 -397 112l14 25q170 -90 359 -90q231 0 354 122.5t123 327.5z" />
    <glyph glyph-name="four" unicode="4" horiz-adv-x="1288" 
d="M776 10q-29 0 -110 -5t-121 -5h-41v20h41q69 0 100 38.5t31 127.5v209h-658v13l838 1128h21v-1004h32q158 0 227.5 27t92.5 98h20l-67 -262h-305v-209q0 -89 31 -127.5t100 -38.5h41v-20h-41q-40 0 -121.5 5t-110.5 5zM676 1210l-508 -678h508v678z" />
    <glyph glyph-name="five" unicode="5" horiz-adv-x="1097" 
d="M813 358q0 117 -63 204t-189 161l-252 145q-52 30 -76 49.5t-37 51.5t-7 73t28 111l123 383h301q181 0 260 27t107 98h20l-82 -283h-604l-39 -118q-22 -62 -21 -97t20.5 -57t70.5 -53l284 -164q162 -94 233 -199.5t71 -234.5q0 -220 -149 -347.5t-384 -127.5
q-191 0 -373 100l11 22q145 -77 337 -77q196 0 303 94t107 239z" />
    <glyph glyph-name="six" unicode="6" horiz-adv-x="1222" 
d="M1147 487q0 -219 -143.5 -363t-362.5 -144q-247 0 -389.5 142t-142.5 413q0 156 50 298t133.5 252t197.5 203.5t235.5 158t253.5 109.5l8 -20q-116 -43 -222 -116t-199.5 -176t-158 -244.5t-85.5 -303.5q128 128 216 170.5t199 42.5q179 0 294.5 -119t115.5 -303z
M623 797q-78 0 -147 -30.5t-159 -111.5q-4 -70 -4 -106q0 -118 19.5 -211.5t60 -164t107.5 -108.5t157 -38q145 0 231.5 91t86.5 253q0 193 -94.5 309.5t-257.5 116.5z" />
    <glyph glyph-name="seven" unicode="7" horiz-adv-x="1062" 
d="M504 0h-252v20l696 1358h-497q-178 0 -256.5 -36t-108.5 -121l-14 -45h-27l102 370q148 -10 207 -10h697v-18q-321 -666 -547 -1518z" />
    <glyph glyph-name="eight" unicode="8" horiz-adv-x="1226" 
d="M1114 391q0 -183 -132.5 -297t-346.5 -114q-230 0 -374 106t-144 276q0 137 83.5 231.5t239.5 172.5q-61 33 -106.5 69t-85 85t-60 113.5t-20.5 142.5q0 169 120.5 274.5t313.5 105.5q195 0 316.5 -87t121.5 -228q0 -130 -80.5 -221t-232.5 -166q69 -32 117 -58
t103 -67.5t88.5 -86.5t56 -110t22.5 -141zM311 1245q0 -34 7.5 -65t17 -55.5t31 -49.5t37.5 -42t48 -38.5t51.5 -33.5t60 -31.5t60 -28.5t64.5 -29q94 47 147.5 141t53.5 206q0 134 -78 213t-211 79q-130 0 -209.5 -73t-79.5 -193zM635 25q151 0 246.5 80.5t95.5 209.5
q0 60 -22.5 111t-55 85t-88.5 69t-102 56.5t-117.5 54t-114.5 54.5q-96 -49 -143 -145.5t-47 -222.5q0 -157 94.5 -254.5t253.5 -97.5z" />
    <glyph glyph-name="nine" unicode="9" horiz-adv-x="1222" 
d="M1114 1001q0 -156 -50 -298t-133.5 -252t-197.5 -203.5t-235.5 -158t-253.5 -109.5l-8 20q116 43 222 116t199.5 176t158 244.5t85.5 303.5q-127 -127 -216 -170t-200 -43q-179 0 -294 119t-115 303q0 219 144 363t362 144q247 0 389.5 -142t142.5 -413zM600 739
q78 0 146.5 30.5t158.5 111.5q4 70 4 106q0 118 -19.5 211.5t-60 164t-107.5 108.5t-157 38q-145 0 -231 -91t-86 -253q0 -193 94.5 -309.5t257.5 -116.5z" />
    <glyph glyph-name="question" unicode="?" horiz-adv-x="948" 
d="M502 1442q-74 0 -136 -19.5t-110.5 -39t-89.5 -19.5q-39 0 -63.5 23t-24.5 57q0 49 75.5 80.5t176.5 31.5q233 0 379.5 -107.5t146.5 -291.5q0 -50 -8 -85.5t-32 -75.5t-73 -81t-127 -88l-141 -86q-61 -37 -84 -68.5t-19 -81t40 -136.5l-21 -4l-59 100q-36 61 -53.5 101
t-22 77.5t13 67.5t52 60t94.5 67l135 82q53 33 80 50.5t61 44t49.5 47t27 48.5t11.5 59q0 80 -71.5 133.5t-206.5 53.5zM442 -20q-63 0 -102 38.5t-39 102.5t39 102.5t102 38.5t102.5 -38.5t39.5 -102.5t-39.5 -102.5t-102.5 -38.5z" />
    <glyph glyph-name="A" unicode="A" horiz-adv-x="1622" 
d="M-31 20q80 0 141 56.5t121 191.5l570 1288h18l613 -1374q39 -88 87.5 -125t118.5 -37h43v-20h-41q-39 0 -125 3t-124 3t-126.5 -3t-127.5 -3h-41v20h41q141 0 80 138l-154 358h-662l-106 -248q-59 -140 -48.5 -194t89.5 -54h41v-20h-41q-32 0 -94 5t-88 5q-22 0 -89.5 -5
t-95.5 -5h-20v20h20zM422 561h622l-311 723z" />
    <glyph glyph-name="B" unicode="B" horiz-adv-x="1474" 
d="M375 10q-24 0 -112 -5t-120 -5h-41v20h41q69 0 100 38.5t31 127.5v1164q0 89 -31 127.5t-100 38.5h-41v20h41q32 0 120 -5t112 -5q61 0 144 5t145 5q125 0 225.5 -19t177 -59t118.5 -107t42 -157q0 -128 -95.5 -221t-261.5 -135q222 -27 347.5 -129t125.5 -277
q0 -113 -46.5 -197.5t-131 -135t-194.5 -75t-246 -24.5q-75 0 -175 5t-175 5zM690 1491q-147 0 -215 -47v-596h227q137 0 220.5 94t83.5 244q0 163 -82.5 234t-233.5 71zM752 45q81 0 145.5 20t116.5 63.5t80 120.5t28 183q0 182 -115.5 276.5t-304.5 94.5h-227v-707
q77 -51 277 -51z" />
    <glyph glyph-name="C" unicode="C" horiz-adv-x="1544" 
d="M1391 74q-75 -25 -124 -40t-152.5 -34.5t-192.5 -19.5q-228 0 -414.5 100.5t-295 281.5t-108.5 406t108.5 406t295 281.5t414.5 100.5q63 0 130.5 -8t107 -16t115 -25.5t103.5 -23.5l25 53h18q-9 -150 -10.5 -192.5t4.5 -190.5h-22q0 172 -126.5 265t-344.5 93
q-140 0 -255 -57t-191 -156.5t-117.5 -235.5t-41.5 -294q0 -212 70.5 -379.5t209 -265.5t325.5 -98q419 0 536 364l21 -6z" />
    <glyph glyph-name="D" unicode="D" horiz-adv-x="1785" 
d="M383 10q-25 0 -116 -5t-124 -5h-41v20h41q69 0 100 38.5t31 127.5v1164q0 89 -31 127.5t-100 38.5h-41v20h41q32 0 120 -5t112 -5q88 0 205.5 5t205.5 5q206 0 375.5 -58t283 -160.5t175 -243.5t61.5 -306t-61.5 -306t-175 -243.5t-283 -160.5t-375.5 -58q-86 0 -201 5
t-202 5zM786 1491q-234 0 -311 -51v-1344q77 -51 311 -51q143 0 258 36.5t193.5 100.5t131 155.5t76 198.5t23.5 232t-24 232t-77 198.5t-132 156t-193 100.5t-256 36z" />
    <glyph glyph-name="E" unicode="E" horiz-adv-x="1325" 
d="M1223 117q-22 -74 -38 -95.5t-52 -21.5h-1031v20h41q68 0 99.5 36t31.5 120v1174q0 89 -31 127.5t-100 38.5h-41v20h754q153 0 293 10v-272h-21v41q0 81 -61 124.5t-205 43.5h-200q-134 0 -187 -33v-635h326q123 0 173 36t58 118l4 43h19v-21q0 -33 -3 -102t-3 -96t3 -97
t3 -102v-21h-19l-4 43q-8 82 -58 118t-173 36h-326v-680q45 -45 205 -45h197q99 0 167.5 20t110.5 62t64.5 88t42.5 117l22 -6z" />
    <glyph glyph-name="F" unicode="F" horiz-adv-x="1232" 
d="M375 10q-24 0 -112 -5t-120 -5h-41v20h41q69 0 100 38.5t31 127.5v1164q0 89 -31 127.5t-100 38.5h-41v20h754q153 0 293 10v-272h-21v41q0 81 -60.5 124.5t-203.5 43.5h-237q-100 0 -152 -17v-651h326q123 0 173 36t58 118l4 43h19v-21q0 -33 -3 -102t-3 -96t3 -97
t3 -102v-21h-19l-4 43q-8 82 -58 118t-173 36h-326v-584q0 -90 40.5 -128t131.5 -38h41v-20h-41q-40 0 -141.5 5t-130.5 5z" />
    <glyph glyph-name="G" unicode="G" horiz-adv-x="1703" 
d="M1376 803q24 0 112 5t120 5h41v-20h-41q-69 0 -100 -38.5t-31 -127.5v-408q0 -96 57 -96v-17q-252 -79 -344 -99q-127 -27 -248 -27q-233 0 -424 100.5t-302.5 281.5t-111.5 406t111 406t302.5 281.5t424.5 100.5q53 0 103 -4t104.5 -13t86 -15.5t96.5 -21t87 -19.5
l25 53h18q-9 -150 -10.5 -192.5t4.5 -190.5h-22q0 172 -132.5 265t-359.5 93q-144 0 -263 -57t-197.5 -156.5t-121.5 -235.5t-43 -294q0 -212 73 -379.5t216 -265.5t336 -98q221 0 334 77v525q0 89 -31 127.5t-100 38.5h-41v20h41q32 0 119.5 -5t111.5 -5z" />
    <glyph glyph-name="H" unicode="H" horiz-adv-x="1927" 
d="M375 10q-29 0 -110.5 -5t-121.5 -5h-41v20h41q69 0 100 38.5t31 127.5v1164q0 89 -31 127.5t-100 38.5h-41v20h41q40 0 121.5 -5t110.5 -5q30 0 111.5 5t119.5 5h41v-20h-41q-69 0 -100 -38.5t-31 -127.5v-535h977v535q0 89 -31 127.5t-100 38.5h-41v20h41q39 0 120.5 -5
t110.5 -5t110.5 5t121.5 5h41v-20h-41q-69 0 -100 -38.5t-31 -127.5v-1164q0 -89 31 -127.5t100 -38.5h41v-20h-41q-40 0 -121.5 5t-110.5 5t-110.5 -5t-120.5 -5h-41v20h41q69 0 100 38.5t31 127.5v584h-977v-584q0 -89 31 -127.5t100 -38.5h41v-20h-41q-38 0 -119.5 5
t-111.5 5z" />
    <glyph glyph-name="I" unicode="I" horiz-adv-x="749" 
d="M375 10q-29 0 -110.5 -5t-121.5 -5h-41v20h41q69 0 100 38.5t31 127.5v1164q0 89 -31 127.5t-100 38.5h-41v20h41q40 0 121.5 -5t110.5 -5q30 0 110.5 5t120.5 5h41v-20h-41q-69 0 -100 -38.5t-31 -127.5v-1164q0 -89 31 -127.5t100 -38.5h41v-20h-41q-40 0 -120.5 5
t-110.5 5z" />
    <glyph glyph-name="J" unicode="J" horiz-adv-x="720" 
d="M461 -66q0 -51 -24 -100.5t-57.5 -86t-80 -71.5t-80 -54.5t-69.5 -37.5l-41 -20l-11 20l52 27q110 56 110 268v1471q0 89 -31 127.5t-100 38.5h-41v20h41q40 0 121 -5t110 -5q30 0 111 5t121 5h41v-20h-41q-69 0 -100 -38.5t-31 -127.5v-1416z" />
    <glyph glyph-name="K" unicode="K" horiz-adv-x="1562" 
d="M375 10q-28 0 -109.5 -5t-122.5 -5h-41v20h41q69 0 100 38.5t31 127.5v1164q0 89 -31 127.5t-100 38.5h-41v20h41q41 0 122.5 -5t109.5 -5q29 0 110 5t121 5h41v-20h-41q-69 0 -100 -38.5t-31 -127.5v-588l600 569q37 34 48.5 69t0 60t-39.5 40.5t-66 15.5h-41v20h41
q32 0 115 -5t108 -5q27 0 103 5t108 5h21v-20h-19q-68 0 -136 -42t-175 -143l-426 -405l608 -736q86 -103 139.5 -136.5t108.5 -33.5h20v-20h-20q-36 0 -120 5t-112 5q-31 0 -107 -5t-116 -5h-41v20h29q36 0 46.5 18t0 43t-34.5 56l-532 664l-111 -105v-510q0 -89 31 -127.5
t100 -38.5h41v-20h-41q-40 0 -121 5t-110 5z" />
    <glyph glyph-name="L" unicode="L" horiz-adv-x="1267" 
d="M1184 125q-24 -79 -40.5 -102t-53.5 -23h-988v20h41q68 0 99.5 36t31.5 120v1174q0 89 -31 127.5t-100 38.5h-41v20h41q41 0 122.5 -5t109.5 -5q29 0 110 5t121 5h41v-20h-41q-69 0 -100 -38.5t-31 -127.5v-1262q43 -43 191 -43h182q77 0 135 14.5t95.5 37.5t66 62.5
t44 77.5t32.5 95l22 -6z" />
    <glyph glyph-name="M" unicode="M" horiz-adv-x="2105" 
d="M303 10q-23 0 -86 -5t-92 -5h-21v20h21q79 0 115 57.5t36 190.5v1082q0 89 -31 127.5t-100 38.5h-41v20h41q25 0 80 -5t74 -5h197l579 -1170l555 1170h101q29 0 110 5t121 5h41v-20h-41q-69 0 -100 -38.5t-31 -127.5v-1164q0 -89 31 -127.5t100 -38.5h41v-20h-41
q-40 0 -121 5t-110 5q-28 0 -109.5 -5t-122.5 -5h-41v20h41q69 0 100 38.5t31 127.5v1207l-620 -1303h-19l-657 1299v-1121q0 -133 36 -190.5t115 -57.5h21v-20h-21q-29 0 -91 5t-85 5h-6z" />
    <glyph glyph-name="N" unicode="N" horiz-adv-x="1820" 
d="M303 10q-23 0 -85 -5t-91 -5h-21v20h21q79 0 115.5 57.5t36.5 190.5v1147q-101 101 -179 101h-30v20h30q38 0 153 -5t200 -5l1048 -1202v944q0 133 -36 190.5t-115 57.5h-21v20h21q28 0 91 -5t85 -5h6q24 0 86 5t92 5h21v-20h-21q-79 0 -115 -57.5t-36 -190.5v-1288h-21
l-1202 1374v-1086q0 -133 36 -190.5t115 -57.5h21v-20h-21q-29 0 -91 5t-85 5h-8z" />
    <glyph glyph-name="O" unicode="O" horiz-adv-x="1830" 
d="M915 -20q-172 0 -322.5 59.5t-258 163.5t-169 250.5t-61.5 314.5t61.5 314.5t169 250.5t258 163.5t322.5 59.5t322.5 -59.5t258 -163.5t169 -250.5t61.5 -314.5t-61.5 -314.5t-169 -250.5t-258 -163.5t-322.5 -59.5zM954 33q160 0 288.5 89.5t199.5 247t71 351.5
q0 222 -81.5 400.5t-227 280t-327.5 101.5q-160 0 -288.5 -89.5t-200 -247t-71.5 -351.5q0 -222 81.5 -400.5t227.5 -280t328 -101.5z" />
    <glyph glyph-name="P" unicode="P" horiz-adv-x="1386" 
d="M375 10q-28 0 -109.5 -5t-122.5 -5h-41v20h41q69 0 100 38.5t31 127.5v1164q0 89 -31 127.5t-100 38.5h-41v20h41q41 0 122.5 -5t109.5 -5q71 0 167 5t167 5q180 0 318.5 -48.5t221 -151t82.5 -246.5q0 -150 -80.5 -260t-219.5 -165t-318 -55q-116 0 -238 33v-457
q0 -90 40.5 -128t131.5 -38h41v-20h-41q-46 0 -142 5t-130 5zM707 1491q-167 0 -232 -45v-760q111 -31 230 -31q182 0 293.5 116.5t111.5 318.5q0 199 -109.5 300t-293.5 101z" />
    <glyph glyph-name="Q" unicode="Q" horiz-adv-x="1830" 
d="M2056 -328q-131 -60 -219 -88t-180 -28q-264 0 -600 223l-330 219q-279 59 -451 269t-172 501q0 168 61.5 314.5t168.5 250.5t257.5 163.5t323.5 59.5t323.5 -59.5t257.5 -163.5t168.5 -250.5t61.5 -314.5q0 -153 -51 -288.5t-141.5 -237t-217.5 -168t-276 -86.5
l230 -152q184 -122 295.5 -165.5t206.5 -43.5q73 0 131 15t143 53zM954 35q160 0 288.5 89t199.5 246t71 351q0 222 -81.5 400t-227 279t-327.5 101q-161 0 -289 -89t-199.5 -246t-71.5 -351q0 -222 81.5 -400t227.5 -279t328 -101z" />
    <glyph glyph-name="R" unicode="R" horiz-adv-x="1499" 
d="M375 10q-29 0 -110.5 -5t-121.5 -5h-41v20h41q69 0 100 38.5t31 127.5v1164q0 89 -31 127.5t-100 38.5h-41v20h41q40 0 121.5 -5t110.5 -5q72 0 167 5t165 5q233 0 378.5 -96t145.5 -273q0 -160 -126.5 -269t-330.5 -126q41 -11 75.5 -38.5t90.5 -96.5l279 -346
q102 -126 155.5 -182t85 -72.5t72.5 -16.5h20v-20h-368q-76 131 -164 242l-311 389q-70 90 -108.5 114.5t-119.5 24.5h-6v-584q0 -90 40.5 -128t131.5 -38h41v-20h-41q-47 0 -142.5 5t-129.5 5zM705 1491q-171 0 -230 -41v-635h227q135 0 221.5 94t86.5 254q0 162 -82.5 245
t-222.5 83z" />
    <glyph glyph-name="S" unicode="S" horiz-adv-x="1230" 
d="M623 1511q-140 0 -229 -79.5t-89 -206.5q0 -64 27.5 -115.5t74.5 -86.5t107.5 -65t128 -57t134.5 -56.5t127.5 -69.5t107.5 -89.5t74.5 -122.5t27.5 -164q0 -187 -138.5 -303t-361.5 -116q-225 0 -372 104l-47 -84h-19q-11 204 -70 412l23 6q75 -216 196.5 -304.5
t288.5 -88.5q163 0 267 84t104 217q0 68 -28 122.5t-75 92t-108 68.5t-129 58.5t-135.5 57t-128.5 68.5t-108 87t-75 119.5t-28 159.5q0 175 125.5 286t327.5 111q222 0 354 -100l37 80h18q-6 -126 -2.5 -186t21.5 -183l-25 -4q-12 96 -52.5 166.5t-99.5 108.5t-121 55.5
t-130 17.5z" />
    <glyph glyph-name="T" unicode="T" horiz-adv-x="1568" 
d="M784 10q-37 0 -139.5 -5t-152.5 -5h-41v20h41q101 0 146.5 47.5t45.5 159.5v1250q-60 14 -182 14h-125q-163 0 -235.5 -38.5t-98.5 -125.5l-12 -41h-21l13 41q65 222 67 229q105 -20 299 -20h791q196 0 301 20q12 -49 65 -229l13 -41h-21l-12 41q-26 87 -98.5 125.5
t-235.5 38.5h-160q-92 0 -147 -12v-1252q0 -112 45.5 -159.5t146.5 -47.5h41v-20h-41q-50 0 -153 5t-140 5z" />
    <glyph glyph-name="U" unicode="U" horiz-adv-x="1744" 
d="M336 1526q29 0 110 5t121 5h41v-20h-41q-69 0 -100 -38.5t-31 -127.5v-658q0 -334 116.5 -490.5t365.5 -156.5q277 0 407.5 156.5t130.5 490.5v576q0 133 -36 190.5t-115 57.5h-41v20h41q29 0 91 -5t85 -5h6q21 0 76 5t82 5h41v-20h-41q-69 0 -100.5 -57.5t-31.5 -190.5
v-576q0 -362 -152 -537t-464 -175q-335 0 -498 175t-163 537v658q0 89 -31.5 127.5t-100.5 38.5h-41v20h41q41 0 122.5 -5t109.5 -5z" />
    <glyph glyph-name="V" unicode="V" horiz-adv-x="1622" 
d="M1653 1516q-80 0 -141 -56.5t-121 -191.5l-570 -1288h-18l-613 1374q-39 88 -87.5 125t-118.5 37h-43v20h41q39 0 125 -3t124 -3t126.5 3t127.5 3h41v-20h-41q-140 0 -79 -138l483 -1126l438 1016q59 140 48.5 194t-89.5 54h-41v20h41q32 0 94 -5t88 -5q22 0 89 5t96 5
h20v-20h-20z" />
    <glyph glyph-name="W" unicode="W" horiz-adv-x="2279" 
d="M1688 1516q-80 0 -141.5 -56.5t-121.5 -191.5l-159 -363l280 -653l439 1016q59 140 48.5 194t-89.5 54h-41v20h41q31 0 93.5 -5t88.5 -5q22 0 88 5t96 5h21v-20h-21q-80 0 -141 -56.5t-121 -191.5l-569 -1288h-19l-319 718l-320 -718h-18l-613 1374q-39 88 -87.5 125
t-118.5 37h-43v20h41q24 0 108.5 -3t134.5 -3q46 0 129.5 3t130.5 3h41v-20h-41q-140 0 -79 -138l483 -1126l221 514l-262 588q-39 88 -88 125t-119 37h-33v20h31q26 0 105.5 -3t121.5 -3q37 0 132.5 3t144.5 3h41v-20h-41q-141 0 -80 -138l172 -403l127 293
q59 140 48.5 194t-89.5 54h-41v20h41q31 0 94 -5t88 -5q23 0 90 5t95 5h20v-20h-20z" />
    <glyph glyph-name="X" unicode="X" horiz-adv-x="1562" 
d="M346 246l356 510l-419 600q-65 94 -116 127t-120 33h-27v20h25q27 0 118 -5t126 -5t135.5 5t130.5 5h41v-20h-41q-41 0 -65 -15.5t-26 -46.5t32 -78l340 -487l290 411q52 74 63 124t-12.5 71t-74.5 21h-41v20h41q30 0 92 -5t86 -5q22 0 91 5t97 5h21v-20h-21
q-73 0 -132.5 -49t-149.5 -177l-318 -448l457 -654q73 -101 114.5 -134.5t104.5 -33.5h39v-20h-37q-27 0 -108 3t-115 3t-130 -3t-126 -3h-41v20h41q63 -2 79 38t-32 110l-377 539l-331 -471q-53 -75 -65.5 -124t9 -70.5t72.5 -21.5h41v-20h-41q-30 0 -99 5t-98 5
q-30 0 -95.5 -5t-92.5 -5h-21v20h21q77 0 150 52t159 174z" />
    <glyph glyph-name="Y" unicode="Y" horiz-adv-x="1427" 
d="M719 10q-32 0 -141 -5t-152 -5h-41v20h41q101 0 146.5 47.5t45.5 159.5v504l-397 623q-61 97 -105.5 129.5t-113.5 32.5h-43v20h41q30 0 122.5 -3t127.5 -3t129 3t125 3h41v-20h-41q-68 0 -78 -37t41 -125l321 -531l281 445q159 248 -12 248h-41v20h41q31 0 94 -5t88 -5
q23 0 89 5t95 5h21v-20h-21q-76 0 -138 -54.5t-150 -193.5l-316 -500v-541q0 -112 46 -159.5t147 -47.5h41v-20h-41q-43 0 -152 5t-141 5z" />
    <glyph glyph-name="Z" unicode="Z" horiz-adv-x="1380" 
d="M1284 117q-21 -73 -37.5 -95t-52.5 -22h-1135v20l951 1469h-514q-139 0 -219 -18t-112 -53t-32 -95v-82h-20v305q140 -10 293 -10h856v-18l-951 -1471h627q98 5 165 25t109.5 59t66.5 85t44 116l23 -6z" />
    <glyph glyph-name="a" unicode="a" horiz-adv-x="1101" 
d="M725 -10l-16 10v188q-108 -111 -191 -159.5t-176 -48.5q-100 0 -169 57.5t-69 169.5q0 61 24 107.5t62 75t100 55.5t122 45.5t144.5 50t152.5 63.5v74q0 287 -226 287q-102 0 -189.5 -55t-133.5 -154l-27 12q55 120 159 198t251 78q162 0 256 -85.5t94 -253.5v-519
q0 -89 31 -127.5t100 -38.5h41v-20h-41q-129 0 -299 -10zM293 246q0 -72 40.5 -116t119.5 -44q64 0 119 29.5t137 111.5v346q-225 -104 -286 -142q-101 -62 -122 -131q-8 -25 -8 -54z" />
    <glyph glyph-name="b" unicode="b" horiz-adv-x="1249" 
d="M618 -20q-54 0 -106.5 12.5t-86.5 28t-70 28t-60 12.5q-55 0 -96 -81h-21v1318q0 89 -31 127.5t-100 38.5h-20v21h20q57 0 93 2.5t95.5 19.5t106.5 49h20v-679q119 95 194 131t175 36q182 0 302 -133.5t120 -369.5q0 -129 -42 -235.5t-114.5 -177.5t-170 -109.5
t-208.5 -38.5zM627 946q-128 0 -265 -102v-711q110 -113 263 -113q159 0 247.5 125.5t88.5 350.5q0 209 -90 329.5t-244 120.5z" />
    <glyph glyph-name="c" unicode="c" horiz-adv-x="1081" 
d="M592 999q-154 0 -243 -119.5t-89 -328.5q0 -210 115 -335.5t325 -125.5q93 0 163 28t149 103l18 -16q-118 -111 -224 -168t-237 -57q-218 0 -345.5 134t-127.5 373q0 126 44 232.5t118 176.5t171 109t204 39q88 0 171.5 -18t141.5 -55t58 -84q0 -37 -26 -62.5t-65 -25.5
q-28 0 -51 15t-37.5 37t-35 48t-43 48t-62.5 37t-92 15z" />
    <glyph glyph-name="d" unicode="d" horiz-adv-x="1286" 
d="M903 -10l-16 10v147q-119 -95 -194 -131t-175 -36q-182 0 -302 133.5t-120 369.5q0 129 43 235.5t118 177.5t175.5 109.5t214.5 38.5q135 0 240 -51v305q0 89 -31 127.5t-100 38.5h-21v21h21q57 0 93 2.5t95.5 19.5t106.5 49h20v-1370q0 -89 31 -127.5t100 -38.5h41v-20
h-41q-129 0 -299 -10zM289 528q0 -209 90 -329.5t244 -120.5q127 0 264 102v713q-108 111 -260 111q-160 0 -249 -126t-89 -350z" />
    <glyph glyph-name="e" unicode="e" horiz-adv-x="1075" 
d="M985 735q0 -31 -2 -45h-704q-13 -67 -13 -131q0 -206 114.5 -337.5t301.5 -131.5q92 0 163 27t152 104l19 -16q-117 -112 -219 -168.5t-228 -56.5q-217 0 -345 134.5t-128 377.5q0 121 41.5 225t112 175t165 111.5t199.5 40.5q169 0 270 -86t101 -223zM594 1004
q-111 0 -192 -72t-115 -201h501q5 45 5 57q0 97 -49 156.5t-150 59.5z" />
    <glyph glyph-name="f" unicode="f" horiz-adv-x="727" 
d="M326 10q-28 0 -106.5 -5t-117.5 -5h-41v20h41q69 0 100 38.5t31 127.5v797h-153v41h153v90q0 203 111 322.5t293 119.5q128 0 221.5 -36.5t93.5 -94.5q0 -41 -23.5 -68.5t-60.5 -27.5q-27 0 -47.5 19.5t-36.5 46.5t-33.5 54.5t-47.5 47t-70 19.5q-103 0 -159 -74
t-56 -217v-201h289v-41h-289v-797q0 -89 31 -127.5t100 -38.5h41v-20h-82q-31 0 -95 5t-87 5z" />
    <glyph glyph-name="g" unicode="g" horiz-adv-x="1112" 
d="M946 696q0 -149 -113.5 -248.5t-285.5 -99.5q-72 0 -146 23q-70 -28 -109.5 -67.5t-39.5 -74.5q0 -86 133 -86h307q99 0 168.5 -19.5t108 -56.5t55 -83t16.5 -105q0 -167 -163.5 -279t-413.5 -112q-211 0 -311.5 65t-100.5 166q0 70 62.5 139.5t173.5 125.5
q-183 24 -183 149q0 70 67 130t191 122q-99 42 -157 124t-58 187q0 135 86 224t224 116q59 12 170.5 21t208 30.5t202.5 71.5v-155l-374 26q134 -35 208 -125t74 -209zM567 387q96 0 144.5 73.5t48.5 194.5q0 158 -60 254.5t-176 96.5q-94 0 -142 -73.5t-48 -195.5
q0 -158 59.5 -254t173.5 -96zM176 -213q0 -86 80 -137t258 -51q203 0 341 75t138 189q0 42 -24 66t-93.5 37.5t-193.5 13.5h-324h-24q-158 -83 -158 -193z" />
    <glyph glyph-name="h" unicode="h" horiz-adv-x="1310" 
d="M313 10q-28 0 -106 -5t-117 -5h-41v20h41q69 0 100 38.5t31 127.5v1112q0 89 -31 127.5t-100 38.5h-20v21h20q57 0 93 2.5t95.5 19.5t106.5 49h21v-706q115 115 193 154.5t173 39.5q144 0 235 -85.5t91 -251.5v-521q0 -89 31 -127.5t100 -38.5h41v-20h-41q-39 0 -117 5
t-106 5t-106.5 -5t-117.5 -5h-41v20h41q69 0 100 38.5t31 127.5v453q0 144 -61.5 213.5t-169.5 69.5q-74 0 -138.5 -22.5t-137.5 -82.5v-631q0 -89 31 -127.5t100 -38.5h41v-20h-41q-39 0 -117.5 5t-106.5 5z" />
    <glyph glyph-name="i" unicode="i" horiz-adv-x="641" 
d="M205 1425q0 58 36 94.5t95 36.5t95 -36.5t36 -94.5t-36 -94.5t-95 -36.5t-95 36.5t-36 94.5zM328 10q-28 0 -106.5 -5t-117.5 -5h-41v20h41q69 0 100.5 38.5t31.5 127.5v600q0 89 -31.5 127.5t-100.5 38.5h-20v21h20q57 0 93 2.5t95.5 19.5t106.5 49h21v-858
q0 -89 31 -127.5t100 -38.5h41v-20h-41q-39 0 -117 5t-106 5z" />
    <glyph glyph-name="j" unicode="j" horiz-adv-x="575" 
d="M180 1425q0 58 36 94.5t95 36.5t95 -36.5t36 -94.5t-36 -94.5t-95 -36.5t-95 36.5t-36 94.5zM395 -78q0 -49 -24.5 -98t-58.5 -85t-78.5 -70.5t-75.5 -52.5t-58 -32l-41 -20l-10 20l51 27q111 57 111 268v907q0 89 -31 127.5t-100 38.5h-21v21h21q56 0 92.5 2.5
t95.5 19.5t107 49h20v-1122z" />
    <glyph glyph-name="k" unicode="k" horiz-adv-x="1251" 
d="M313 10q-28 0 -106 -5t-117 -5h-41v20h41q69 0 100 38.5t31 127.5v1112q0 89 -31 127.5t-100 38.5h-20v21h20q57 0 93.5 2.5t95 19.5t106.5 49h21v-1046l360 307q53 45 57.5 89.5t-29.5 71t-89 26.5h-41v20h41q31 0 113 -5t106 -5q29 0 114 5t121 5h21v-20h-21
q-74 0 -146.5 -42.5t-189.5 -144.5l-176 -153l383 -480q80 -101 128.5 -132.5t98.5 -31.5h21v-20h-21q-35 0 -115.5 5t-107.5 5q-30 0 -102.5 -5t-110.5 -5h-41v20h29q97 0 10 115l-311 406l-102 -90v-265q0 -89 31 -127.5t100 -38.5h41v-20h-41q-39 0 -117.5 5t-106.5 5z
" />
    <glyph glyph-name="l" unicode="l" horiz-adv-x="630" 
d="M315 10q-28 0 -106 -5t-117 -5h-41v20h41q69 0 100 38.5t31 127.5v1112q0 89 -31 127.5t-100 38.5h-20v21h20q57 0 93 2.5t95.5 19.5t106.5 49h21v-1370q0 -89 31 -127.5t100 -38.5h41v-20h-41q-39 0 -117.5 5t-106.5 5z" />
    <glyph glyph-name="m" unicode="m" horiz-adv-x="1937" 
d="M326 10q-28 0 -106.5 -5t-117.5 -5h-41v20h41q69 0 100 38.5t31 127.5v600q0 89 -31 127.5t-100 38.5h-20v21h20q57 0 93.5 2.5t95 19.5t106.5 49h21v-194q113 115 185.5 154.5t160.5 39.5q107 0 184 -54t105 -159q124 127 199 170t167 43q136 0 220.5 -85.5t84.5 -251.5
v-521q0 -89 31 -127.5t100 -38.5h41v-20h-41q-39 0 -117 5t-106 5t-106 -5t-117 -5h-41v20h41q69 0 100 38.5t31 127.5v453q0 144 -56.5 213.5t-154.5 69.5q-71 0 -133 -25t-137 -92q10 -48 10 -98v-521q0 -89 31 -127.5t100 -38.5h41v-20h-41q-39 0 -117 5t-106 5t-106 -5
t-117 -5h-41v20h41q69 0 100 38.5t31 127.5v453q0 144 -56.5 213.5t-154.5 69.5q-68 0 -127 -22.5t-129 -82.5v-631q0 -89 31 -127.5t100 -38.5h41v-20h-41q-39 0 -117 5t-106 5z" />
    <glyph glyph-name="n" unicode="n" horiz-adv-x="1323" 
d="M326 10q-28 0 -106.5 -5t-117.5 -5h-41v20h41q69 0 100 38.5t31 127.5v600q0 89 -31 127.5t-100 38.5h-20v21h20q57 0 93.5 2.5t95 19.5t106.5 49h21v-194q115 115 193 154.5t173 39.5q144 0 235 -85.5t91 -251.5v-521q0 -89 31 -127.5t100 -38.5h41v-20h-41
q-39 0 -117 5t-106 5t-106 -5t-117 -5h-41v20h41q69 0 100 38.5t31 127.5v453q0 144 -62 213.5t-170 69.5q-74 0 -138.5 -22.5t-137.5 -82.5v-631q0 -89 31 -127.5t100 -38.5h41v-20h-41q-39 0 -117 5t-106 5z" />
    <glyph glyph-name="o" unicode="o" horiz-adv-x="1269" 
d="M635 -20q-154 0 -278 68.5t-194.5 190.5t-70.5 273q0 228 154.5 380t388.5 152t388.5 -152t154.5 -380q0 -151 -70.5 -273t-194.5 -190.5t-278 -68.5zM655 20q150 0 232 119.5t82 331.5q0 246 -94 389.5t-261 143.5q-149 0 -231 -120.5t-82 -330.5q0 -247 93.5 -390
t260.5 -143z" />
    <glyph glyph-name="p" unicode="p" horiz-adv-x="1273" 
d="M295 -502q-28 0 -106 -5t-117 -5h-41v20h41q69 0 100 38.5t31 127.5v1112q0 89 -31 127.5t-100 38.5h-21v21h21q57 0 93.5 2.5t95 19.5t106.5 49h20v-167q119 95 194 131t175 36q182 0 302 -133.5t120 -369.5q0 -129 -41.5 -235.5t-114 -177.5t-169 -109.5t-206.5 -38.5
q-157 0 -260 53v-359q0 -89 31 -127.5t100 -38.5h41v-20h-41q-39 0 -117 5t-106 5zM651 946q-127 0 -264 -102v-711q110 -113 262 -113q159 0 247.5 125.5t88.5 350.5q0 209 -90 329.5t-244 120.5z" />
    <glyph glyph-name="q" unicode="q" horiz-adv-x="1243" 
d="M979 -502q-28 0 -106 -5t-117 -5h-41v20h41q69 0 100 38.5t31 127.5v473q-119 -95 -194 -131t-175 -36q-182 0 -302 133.5t-120 369.5q0 129 41.5 235.5t114 177.5t169 109.5t206.5 38.5q54 0 108 -12.5t88.5 -28t70.5 -28t60 -12.5q56 0 97 81h20v-1370q0 -89 31 -127.5
t100 -38.5h41v-20h-41q-39 0 -117 5t-106 5zM289 528q0 -209 90 -329.5t244 -120.5q127 0 264 102v711q-110 113 -262 113q-159 0 -247.5 -125.5t-88.5 -350.5z" />
    <glyph glyph-name="r" unicode="r" horiz-adv-x="915" 
d="M326 10q-28 0 -106.5 -5t-117.5 -5h-41v20h41q69 0 100 38.5t31 127.5v600q0 89 -31 127.5t-100 38.5h-20v21h20q57 0 93 2.5t95.5 19.5t106.5 49h21v-157q89 82 153.5 119.5t130.5 37.5q69 0 120.5 -28t51.5 -70q0 -34 -22 -58t-57 -24q-30 0 -58 19t-60 38t-73 19
q-40 0 -81 -20t-105 -68v-666q0 -89 31 -127.5t100 -38.5h41v-20h-41q-39 0 -117 5t-106 5z" />
    <glyph glyph-name="s" unicode="s" horiz-adv-x="927" 
d="M469 1004q-95 0 -150 -43.5t-55 -118.5q0 -45 30.5 -81.5t79 -62t107 -51t117.5 -56t107.5 -68t79 -96.5t30.5 -134q0 -144 -93.5 -228.5t-246.5 -84.5q-147 0 -270 63l-23 -43h-18q-7 135 -62 322l23 6q59 -171 145.5 -239.5t204.5 -68.5q96 0 156.5 49.5t60.5 131.5
q0 58 -30.5 103t-79 74t-107 55t-117.5 55.5t-107.5 66t-79 95.5t-30.5 136q0 122 88.5 190t239.5 68q140 0 244 -59l14 39h18q-7 -131 17 -303l-23 -2q-19 151 -95.5 218t-174.5 67z" />
    <glyph glyph-name="t" unicode="t" horiz-adv-x="768" 
d="M385 1300h21v-276h309v-41h-309v-741q0 -92 33 -136.5t91 -44.5q102 0 213 72l13 -16q-87 -68 -156.5 -102.5t-148.5 -34.5q-99 0 -164.5 60t-65.5 175v768h-172v21l25 8q97 32 184.5 105t126.5 183z" />
    <glyph glyph-name="u" unicode="u" horiz-adv-x="1304" 
d="M209 317v521q0 89 -31 127.5t-100 38.5h-41v20h41q129 0 299 10l16 -10v-680q0 -144 51 -213.5t140 -69.5q81 0 153 32t164 114v631q0 89 -31 127.5t-100 38.5h-41v20h41q129 0 299 10l16 -10v-838q0 -89 31.5 -127.5t100.5 -38.5h40v-20h-40q-129 0 -299 -10l-17 10v174
q-115 -115 -193 -154.5t-173 -39.5q-144 0 -235 85.5t-91 251.5z" />
    <glyph glyph-name="v" unicode="v" horiz-adv-x="1265" 
d="M1276 1004q-78 0 -138 -56.5t-124 -191.5l-369 -776h-18l-416 862q-42 88 -90.5 125t-116.5 37h-43v20h41q171 -6 238 -6q41 0 121 3t128 3h41v-20h-41q-66 0 -88 -31.5t9 -106.5l297 -641l249 531q61 135 50 191.5t-91 56.5h-41v20h41q31 0 93 -5t86 -5q22 0 88 5t94 5
h20v-20h-20z" />
    <glyph glyph-name="w" unicode="w" horiz-adv-x="1587" 
d="M1094 -20h-15l-286 733l-281 -733h-14l-336 862q-33 88 -72 125t-94 37h-35v20h33q21 -1 96.5 -3t95.5 -3q37 0 124.5 3t125.5 3h29v-20h-33q-56 0 -84 -34.5t-2 -103.5l223 -594l195 514l-21 56q-33 88 -71.5 125t-93.5 37h-35v20h32q21 -1 97 -3t96 -3q37 0 124.5 3
t125.5 3h29v-20h-33q-56 0 -84 -34.5t-2 -103.5l223 -594l182 484q49 135 40.5 191.5t-73.5 56.5h-34v20h34q24 0 79.5 -5t76.5 -5q18 0 71 5t75 5h16v-20h-16q-63 0 -110.5 -56.5t-100.5 -191.5z" />
    <glyph glyph-name="x" unicode="x" horiz-adv-x="1234" 
d="M354 246l203 250l-262 346q-73 95 -123.5 128.5t-118.5 33.5h-18v20h37q33 -1 114.5 -5t96.5 -5q20 0 110.5 5.5t124.5 4.5h41v-20h-41q-63 0 -72 -35t43 -105l187 -248l141 172q43 53 61.5 95t13 68t-28 39.5t-60.5 13.5h-41v20h41q31 0 92 -5t86 -5q23 0 88 5t94 5h21
v-20h-21q-70 0 -129.5 -49t-163.5 -177l-163 -200l292 -388q80 -105 119 -137.5t103 -32.5h14v-20h-12q-26 1 -111.5 3t-110.5 3q-17 0 -113.5 -3.5t-131.5 -2.5h-41v20h41q65 -2 82 38t-33 110l-219 289l-178 -221q-139 -172 -61 -208q19 -8 48 -8h41v-20h-41q-31 0 -92 5
t-86 5q-23 0 -88 -5t-94 -5h-21v20h21q74 0 148.5 54t170.5 172z" />
    <glyph glyph-name="y" unicode="y" horiz-adv-x="1208" 
d="M254 -453q82 0 168.5 78t159.5 238l-383 979q-36 94 -77 129t-110 35h-43v20h41q18 -1 63 -3t86 -3.5t74 -1.5q20 0 108 4t142 2h41v-20h-41q-137 0 -90 -130l279 -784l258 666q57 146 42 197t-112 51h-41v20h41q30 0 91.5 -5t86.5 -5q22 0 88 5t95 5h20v-20h-20
q-78 0 -132.5 -54.5t-109.5 -193.5l-330 -832q-91 -230 -206.5 -333t-264.5 -103q-94 0 -160.5 28t-66.5 87q0 36 24 62t60 26q25 0 45.5 -15t36 -36t32.5 -42t43.5 -36t61.5 -15z" />
    <glyph glyph-name="z" unicode="z" horiz-adv-x="1052" 
d="M969 -10q-140 10 -293 10h-606v20l649 963h-221q-203 0 -283 -48.5t-80 -154.5v-41h-20v295q140 -10 293 -10h542v-18l-649 -965h285q138 0 218.5 23.5t112 66.5t31.5 113v41h21v-295z" />
    <glyph glyph-name="guillemotleft" unicode="&#xab;" horiz-adv-x="1157" 
d="M309 588l303 -422l-16 -14l-516 436l516 436l16 -14zM760 588l303 -422l-16 -14l-517 436l517 436l16 -14z" />
    <glyph glyph-name="guillemotright" unicode="&#xbb;" horiz-adv-x="1157" 
d="M397 588l-303 422l17 14l516 -436l-516 -436l-17 14zM848 588l-303 422l16 14l516 -436l-516 -436l-16 14z" />
    <glyph glyph-name="quoteleft" unicode="&#x2018;" horiz-adv-x="454" 
d="M289 1180q-17 -85 -41.5 -120.5t-67.5 -35.5q-33 0 -55.5 22t-22.5 58q0 64 43 133l201 319l23 -8z" />
    <glyph glyph-name="quoteright" unicode="&#x2019;" horiz-adv-x="452" 
d="M195 1401q17 85 41 120t67 35q33 0 55.5 -21.5t22.5 -57.5q0 -65 -43 -134l-201 -319l-22 8z" />
    <glyph glyph-name="quotedblleft" unicode="&#x201c;" horiz-adv-x="843" 
d="M289 1180q-17 -85 -41.5 -120.5t-67.5 -35.5q-33 0 -55.5 22t-22.5 58q0 64 43 133l201 319l23 -8zM678 1180q-17 -85 -41.5 -120.5t-67.5 -35.5q-33 0 -55 22t-22 58q0 64 43 133l200 319l23 -8z" />
    <glyph glyph-name="quotedblright" unicode="&#x201d;" horiz-adv-x="841" 
d="M195 1401q17 85 41 120t67 35q33 0 55.5 -21.5t22.5 -57.5q0 -65 -43 -134l-201 -319l-22 8zM584 1401q17 85 41 120t67 35q33 0 55.5 -21.5t22.5 -57.5q0 -65 -43 -134l-201 -319l-22 8z" />
    <glyph glyph-name="thinspace" horiz-adv-x="256" 
 />
    <glyph glyph-name="idotaccent" horiz-adv-x="641" 
d="M328 1464q55 0 91 -35t36 -92t-36 -92t-91 -35t-91 35t-36 92t36 92t91 35zM328 10q-28 0 -106.5 -5t-117.5 -5h-41v20h41q69 0 100.5 38.5t31.5 127.5v600q0 89 -31.5 127.5t-100.5 38.5h-20v21h20q57 0 93 2.5t95.5 19.5t106.5 49h21v-858q0 -89 31 -127.5t100 -38.5
h41v-20h-41q-39 0 -117 5t-106 5z" />
    <glyph glyph-name="comma.numr" horiz-adv-x="415" 
d="M119 682q20 90 47 128t72 38q36 0 60 -23.5t24 -62.5q0 -67 -48 -144l-217 -342l-22 7z" />
    <glyph glyph-name="period.numr" horiz-adv-x="401" 
d="M201 594q-57 0 -92 34.5t-35 92.5t35 92.5t92 34.5t92 -34.5t35 -92.5t-35 -92.5t-92 -34.5z" />
    <glyph glyph-name="parenleft.numr" horiz-adv-x="430" 
d="M78 1075q0 107 27.5 200t73.5 159t91.5 110t96.5 78l16 -18q-94 -71 -149.5 -212t-55.5 -317t55 -316.5t150 -211.5l-16 -19q-51 35 -96.5 79t-91.5 110.5t-73.5 159t-27.5 198.5z" />
    <glyph glyph-name="parenright.numr" horiz-adv-x="430" 
d="M352 1075q0 -106 -27.5 -198.5t-73.5 -159t-91.5 -110.5t-96.5 -79l-16 19q95 71 150 211.5t55 316.5t-55.5 317t-149.5 212l16 18q51 -34 96.5 -78t91.5 -110t73.5 -159t27.5 -200z" />
    <glyph glyph-name="plus.numr" horiz-adv-x="630" 
d="M293 799v256h-254v41h254v256h45v-256h254v-41h-254v-256h-45z" />
    <glyph glyph-name="zero.numr" 
d="M399 594q-152 0 -252 132t-100 349t100 349t252 132t252.5 -132t100.5 -349t-100.5 -349t-252.5 -132zM399 629q98 0 145.5 116.5t47.5 329.5t-47.5 330t-145.5 117q-192 0 -192 -447q0 -446 192 -446z" />
    <glyph glyph-name="one.numr" horiz-adv-x="483" 
d="M252 621q-19 0 -73 -3.5t-81 -3.5h-24v21h24q41 0 59.5 21t18.5 71v602q0 61 -24 80t-95 0l-6 21q142 45 266 126h13v-829q0 -50 18.5 -71t59.5 -21h24v-21h-24q-27 0 -82 3.5t-74 3.5z" />
    <glyph glyph-name="two.numr" 
d="M492 735q54 0 91.5 12t61 37.5t35.5 52.5t25 70l22 -6l-37 -121q-35 -118 -45 -136q-17 -30 -51 -30h-524v11q183 216 268.5 330t118 185.5t32.5 141.5q0 92 -48.5 146.5t-131.5 54.5q-62 0 -110.5 -33.5t-106.5 -110.5l-18 17q70 98 147 149t178 51q107 0 171.5 -52.5
t64.5 -151.5q0 -31 -7 -60.5t-27.5 -66t-40 -65.5t-63 -82t-77 -91t-101.5 -116t-118 -136h291z" />
    <glyph glyph-name="three.numr" 
d="M565 891q0 104 -55 171.5t-164 67.5q-34 0 -65 -14l-76 -72l-29 27l361 344h-213q-110 0 -158.5 -22t-63.5 -74l-8 -27h-24l84 250q111 -6 127 -6h430v-12l-398 -375q73 39 150 39q118 0 190 -64.5t72 -177.5q0 -159 -119.5 -256.5t-304.5 -97.5q-117 0 -242 70l13 22
q104 -55 219 -55q133 0 203.5 71.5t70.5 190.5z" />
    <glyph glyph-name="four.numr" 
d="M473 621q-19 0 -74 -3.5t-82 -3.5h-24v21h24q42 0 61 21t19 71v98h-379v6l519 725h12v-610h8q90 0 129 16.5t53 59.5h19l-41 -197h-168v-98q0 -50 19 -71t61 -21h24v-21h-24q-27 0 -82 3.5t-74 3.5zM397 1298l-247 -352h247v352z" />
    <glyph glyph-name="five.numr" 
d="M543 823q0 67 -36.5 115t-111.5 90l-151 86q-59 33 -68 62t17 116l77 244h174q108 0 156.5 16.5t65.5 59.5h18l-57 -197h-353l-16 -45q-16 -41 -7.5 -65.5t56.5 -53.5l176 -104q170 -101 170 -256q0 -137 -90.5 -217t-232.5 -80q-122 0 -238 70l12 20q96 -51 207 -51
q110 0 171 54t61 136z" />
    <glyph glyph-name="six.numr" 
d="M731 895q0 -132 -86 -216.5t-221 -84.5q-149 0 -244.5 89t-95.5 251q0 97 33 185t87.5 154t129.5 123t153.5 96t165.5 69l9 -23q-152 -57 -269.5 -186t-146.5 -316q73 71 124.5 95t116.5 24q106 0 175 -73t69 -187zM393 1067q-75 0 -151 -66q-2 -20 -2 -63
q0 -136 55 -221.5t151 -85.5q69 0 111.5 45.5t42.5 126.5q0 118 -57 191t-150 73z" />
    <glyph glyph-name="seven.numr" 
d="M418 614h-195v13l408 788h-283q-108 0 -151.5 -22.5t-59.5 -73.5l-8 -27h-25l68 250q129 -6 150 -6h397v-10q-107 -202 -185 -445.5t-116 -466.5z" />
    <glyph glyph-name="eight.numr" 
d="M705 866q0 -122 -81.5 -197t-217.5 -75q-140 0 -227 62.5t-87 164.5q0 85 53.5 141t147.5 95q-79 42 -122.5 100.5t-43.5 153.5q0 108 76 176.5t200 68.5q123 0 198 -52t75 -142q0 -74 -46 -128t-132 -99q46 -21 78 -42t64 -52.5t48.5 -75.5t16.5 -99zM233 1364
q0 -41 15 -72t52 -57t61.5 -38.5t80.5 -36.5q17 -7 25 -11q46 29 72 82.5t26 116.5q0 79 -43 126.5t-123 47.5q-74 0 -120 -44t-46 -114zM410 629q89 0 143.5 46t54.5 120q0 35 -13 65t-31.5 49.5t-51.5 39.5t-59 32t-68.5 30.5t-67.5 30.5q-108 -57 -108 -204
q0 -92 55 -150.5t146 -58.5z" />
    <glyph glyph-name="nine.numr" 
d="M715 1217q0 -97 -33 -185t-87 -154t-129.5 -123t-154 -96t-166.5 -69l-6 22q71 27 136 70.5t123.5 104.5t99.5 145.5t55 181.5q-71 -71 -123 -95t-117 -24q-106 0 -175.5 73t-69.5 187q0 132 86.5 216.5t220.5 84.5q149 0 244.5 -89t95.5 -250zM408 1083q75 0 149 64
q2 23 2 65q0 136 -54.5 222t-150.5 86q-70 0 -111.5 -45t-41.5 -127q0 -118 57 -191.5t150 -73.5z" />
    <glyph glyph-name="comma.dnom" horiz-adv-x="415" 
d="M119 68q20 90 47 127.5t72 37.5q36 0 60 -23.5t24 -62.5q0 -66 -48 -143l-217 -342l-22 6z" />
    <glyph glyph-name="period.dnom" horiz-adv-x="401" 
d="M201 -20q-57 0 -92 34t-35 92t35 92.5t92 34.5t92 -34.5t35 -92.5t-35 -92t-92 -34z" />
    <glyph glyph-name="parenleft.dnom" horiz-adv-x="430" 
d="M78 461q0 107 27.5 200t73.5 159t91.5 110t96.5 78l16 -19q-95 -71 -150 -211.5t-55 -316.5t55.5 -317t149.5 -212l-16 -18q-51 35 -96.5 79t-91.5 110.5t-73.5 159t-27.5 198.5z" />
    <glyph glyph-name="parenright.dnom" horiz-adv-x="430" 
d="M352 461q0 -106 -27.5 -198.5t-73.5 -159t-91.5 -110.5t-96.5 -79l-16 18q94 71 149.5 212t55.5 317t-55 316.5t-150 211.5l16 19q51 -34 96.5 -78t91.5 -110t73.5 -159t27.5 -200z" />
    <glyph glyph-name="plus.dnom" horiz-adv-x="630" 
d="M293 184v256h-254v41h254v256h45v-256h254v-41h-254v-256h-45z" />
    <glyph glyph-name="zero.dnom" 
d="M399 -20q-152 0 -252 132t-100 349t100 349t252 132t252.5 -132t100.5 -349t-100.5 -349t-252.5 -132zM399 14q98 0 145.5 117t47.5 330t-47.5 329.5t-145.5 116.5q-192 0 -192 -446q0 -447 192 -447z" />
    <glyph glyph-name="one.dnom" horiz-adv-x="483" 
d="M252 6q-19 0 -73 -3t-81 -3h-24v20h24q41 0 59.5 21.5t18.5 71.5v602q0 61 -24 80t-95 0l-6 20q139 44 266 127h13v-829q0 -50 18.5 -71.5t59.5 -21.5h24v-20h-24q-27 0 -82 3t-74 3z" />
    <glyph glyph-name="two.dnom" 
d="M492 121q54 0 91.5 12t61 37.5t35.5 52.5t25 70l22 -6l-37 -121q-35 -118 -45 -136q-17 -30 -51 -30h-524v10q183 216 268.5 330.5t118 186t32.5 141.5q0 92 -48.5 146t-131.5 54q-62 0 -110.5 -33t-106.5 -110l-18 16q70 98 147 149.5t178 51.5q107 0 171.5 -53
t64.5 -152q0 -31 -7 -60.5t-27.5 -66t-40 -65.5t-63 -81.5t-77 -91t-101 -115.5t-118.5 -136h291z" />
    <glyph glyph-name="three.dnom" 
d="M565 276q0 104 -55 172t-164 68q-34 0 -65 -14l-76 -72l-29 27l361 344h-213q-110 0 -158.5 -22t-63.5 -74l-8 -27h-24l84 250q111 -6 127 -6h430v-13l-398 -374q71 38 150 38q118 0 190 -64t72 -177q0 -159 -119.5 -257t-304.5 -98q-117 0 -242 70l13 23
q106 -56 219 -56q133 0 203.5 71.5t70.5 190.5z" />
    <glyph glyph-name="four.dnom" 
d="M475 6q-19 0 -74 -3t-82 -3h-24v20h24q42 0 61 21.5t19 71.5v98h-379v6l519 725h12v-610h8q90 0 129 16.5t53 59.5h19l-41 -197h-168v-98q0 -50 19 -71.5t61 -21.5h24v-20h-24q-27 0 -82 3t-74 3zM399 684l-247 -352h247v352z" />
    <glyph glyph-name="five.dnom" 
d="M543 209q0 67 -36.5 115t-111.5 90l-151 86q-59 33 -68 62t17 116l77 244h174q109 0 157 16t65 59h18l-57 -196h-353l-16 -45q-16 -41 -7.5 -65.5t56.5 -53.5l176 -105q170 -101 170 -256q0 -137 -90 -216.5t-233 -79.5q-124 0 -238 69l12 21q98 -52 207 -52
q110 0 171 54.5t61 136.5z" />
    <glyph glyph-name="six.dnom" 
d="M731 281q0 -132 -86 -216.5t-221 -84.5q-149 0 -244.5 89t-95.5 250q0 97 33 185t87.5 154t129.5 123t153.5 96t165.5 69l9 -22q-152 -57 -269.5 -186t-146.5 -316q73 71 124.5 95t116.5 24q106 0 175 -73t69 -187zM393 453q-75 0 -151 -66q-2 -20 -2 -63q0 -136 55 -222
t151 -86q69 0 111.5 45.5t42.5 126.5q0 118 -57 191.5t-150 73.5z" />
    <glyph glyph-name="seven.dnom" 
d="M416 0h-195v12l408 789h-283q-108 0 -151.5 -22.5t-59.5 -73.5l-8 -27h-25l68 250q129 -6 149 -6h398v-11q-107 -202 -185 -445t-116 -466z" />
    <glyph glyph-name="eight.dnom" 
d="M705 252q0 -122 -81.5 -197t-217.5 -75q-140 0 -227 62.5t-87 164.5q0 85 53 140.5t148 94.5q-79 42 -122.5 100.5t-43.5 153.5q0 108 76 177t200 69q123 0 198 -52t75 -142q0 -75 -46 -129t-132 -99q46 -21 78 -41.5t64 -52t48.5 -75.5t16.5 -99zM233 750q0 -41 15 -72
t52 -57t61.5 -38.5t80.5 -36.5q17 -7 25 -11q46 29 72 82t26 116q0 79 -43 126.5t-123 47.5q-75 0 -120.5 -44t-45.5 -113zM410 14q89 0 143.5 46t54.5 120q0 35 -13 65t-31.5 49.5t-51.5 40t-58.5 32t-69 30.5t-67.5 31q-108 -57 -108 -205q0 -92 55 -150.5t146 -58.5z" />
    <glyph glyph-name="nine.dnom" 
d="M715 602q0 -97 -33 -185t-87 -154t-129.5 -123t-154 -96t-166.5 -69l-6 23q71 27 136 70.5t123.5 104.5t99.5 145.5t55 181.5q-71 -71 -123 -95t-117 -24q-106 0 -175.5 73t-69.5 187q0 132 86.5 216.5t220.5 84.5q149 0 244.5 -89t95.5 -251zM408 469q39 0 73 13.5
t76 49.5q2 23 2 66q0 136 -54.5 221.5t-150.5 85.5q-70 0 -111.5 -45t-41.5 -127q0 -118 57 -191t150 -73z" />
    <glyph glyph-name="fraction" horiz-adv-x="315" 
d="M662 1536h61l-1073 -1536h-62z" />
    </font>
</defs>
</svg>
